<svg width="324" height="274" viewBox="0 0 324 274" fill="none" xmlns="http://www.w3.org/2000/svg">
<path d="M111.432 138.264C111.321 139.794 110.755 140.998 109.732 141.877C108.717 142.756 107.376 143.195 105.709 143.195C103.886 143.195 102.451 142.583 101.402 141.359C100.361 140.129 99.8398 138.443 99.8398 136.301V135.432C99.8398 134.064 100.081 132.86 100.562 131.818C101.044 130.777 101.731 129.979 102.623 129.426C103.521 128.866 104.563 128.586 105.748 128.586C107.389 128.586 108.71 129.025 109.713 129.904C110.715 130.783 111.295 132.017 111.451 133.605H108.521C108.45 132.688 108.193 132.023 107.75 131.613C107.314 131.197 106.646 130.988 105.748 130.988C104.771 130.988 104.039 131.34 103.551 132.043C103.069 132.74 102.822 133.824 102.809 135.295V136.369C102.809 137.906 103.04 139.029 103.502 139.738C103.971 140.448 104.706 140.803 105.709 140.803C106.614 140.803 107.288 140.598 107.73 140.188C108.18 139.771 108.437 139.13 108.502 138.264H111.432ZM127.184 128.781L130.836 139.094L134.469 128.781H138.316V143H135.377V139.113L135.67 132.404L131.832 143H129.82L125.992 132.414L126.285 139.113V143H123.355V128.781H127.184ZM158.248 139.27C158.248 138.716 158.053 138.293 157.662 138C157.271 137.701 156.568 137.388 155.553 137.062C154.537 136.73 153.733 136.405 153.141 136.086C151.526 135.214 150.719 134.038 150.719 132.561C150.719 131.792 150.934 131.109 151.363 130.51C151.799 129.904 152.421 129.432 153.229 129.094C154.042 128.755 154.954 128.586 155.963 128.586C156.979 128.586 157.883 128.771 158.678 129.143C159.472 129.507 160.087 130.025 160.523 130.695C160.966 131.366 161.188 132.128 161.188 132.98H158.258C158.258 132.329 158.053 131.825 157.643 131.467C157.232 131.102 156.656 130.92 155.914 130.92C155.198 130.92 154.641 131.073 154.244 131.379C153.847 131.678 153.648 132.076 153.648 132.57C153.648 133.033 153.88 133.42 154.342 133.732C154.811 134.045 155.497 134.338 156.402 134.611C158.069 135.113 159.283 135.734 160.045 136.477C160.807 137.219 161.188 138.143 161.188 139.25C161.188 140.48 160.722 141.447 159.791 142.15C158.86 142.847 157.607 143.195 156.031 143.195C154.938 143.195 153.941 142.997 153.043 142.6C152.145 142.196 151.458 141.646 150.982 140.949C150.514 140.253 150.279 139.445 150.279 138.527H153.219C153.219 140.096 154.156 140.881 156.031 140.881C156.728 140.881 157.271 140.741 157.662 140.461C158.053 140.174 158.248 139.777 158.248 139.27ZM179.79 136.96C179.47 136.4 177.99 134.1 177.43 133.32V132.38H179.43V130.18H177.43V126.06H175.27V130.18H172.87V132.38H175.09C174.59 134.74 173.53 137.52 172.41 139.08C172.75 139.62 173.23 140.52 173.45 141.18C174.13 140.18 174.75 138.78 175.27 137.24V144.72H177.43V136.2C177.87 137.1 178.31 138.04 178.57 138.66L179.79 136.96ZM186.33 139.86V138.9H188.11V139.86H186.33ZM182.49 138.9H184.19V139.86H182.49V138.9ZM184.19 136.5V137.36H182.49V136.5H184.19ZM188.11 136.5V137.36H186.33V136.5H188.11ZM184.17 131.58H186.37V132.42H184.17V131.58ZM184.17 129.16H186.37V129.98H184.17V129.16ZM191.39 139.86H190.31V134.86H186.33V134.1H191.19V132.42H188.59V131.58H190.51V129.98H188.59V129.16H190.83V127.52H188.59V126.06H186.37V127.52H184.17V126.06H181.97V127.52H179.91V129.16H181.97V129.98H180.33V131.58H181.97V132.42H179.49V134.1H184.19V134.86H180.35V139.86H179.13V141.6H180.35V144.58H182.49V141.6H188.11V142.44C188.11 142.68 188.03 142.74 187.77 142.74C187.53 142.74 186.71 142.76 185.97 142.72C186.23 143.26 186.49 144.04 186.59 144.6C187.85 144.6 188.79 144.58 189.45 144.28C190.11 143.96 190.31 143.46 190.31 142.46V141.6H191.39V139.86ZM206.31 129.32C206.67 129.94 207.03 130.64 207.17 131.14L209.09 130.58C208.97 130.24 208.73 129.78 208.47 129.32H211.27C211.01 129.56 210.75 129.78 210.49 129.98C211.05 130.22 212.09 130.76 212.57 131.12C213.11 130.64 213.65 130.02 214.15 129.32H215.25C215.71 129.92 216.15 130.64 216.35 131.12L218.37 130.54C218.21 130.2 217.93 129.76 217.61 129.32H221.11V127.46H215.31C215.49 127.12 215.65 126.78 215.79 126.44L213.53 125.9C213.11 127 212.43 128.08 211.63 128.94V127.46H207.17C207.35 127.14 207.51 126.82 207.65 126.5L205.43 125.9C204.83 127.38 203.71 128.86 202.51 129.82C203.05 130.1 203.99 130.74 204.43 131.12C204.95 130.64 205.49 130.02 205.99 129.32H206.31ZM216.51 132.8V134.82C215.97 134.3 215.19 133.72 214.55 133.26L213.55 134.12C213.57 133.84 213.59 133.58 213.59 133.3V132.8H216.51ZM220.97 140.08V138.22H213.05V137.02H211.91C212.79 136.34 213.25 135.5 213.45 134.64C214.19 135.24 214.99 135.98 215.39 136.5L216.53 135.48C216.57 136.24 216.71 136.56 216.97 136.84C217.31 137.18 217.85 137.32 218.35 137.32H219.33C219.67 137.32 220.11 137.26 220.39 137.12C220.69 136.96 220.91 136.7 221.05 136.34C221.17 136.02 221.25 135.2 221.31 134.44C220.83 134.26 220.13 133.94 219.77 133.62C219.75 134.26 219.73 134.78 219.69 135C219.65 135.24 219.59 135.36 219.53 135.4C219.47 135.46 219.39 135.46 219.29 135.46H218.97C218.89 135.46 218.83 135.44 218.79 135.36C218.73 135.3 218.75 135.1 218.75 134.76V131.24H211.43V133.24C211.43 133.96 211.29 134.68 210.59 135.32L210.53 134.34L208.05 134.7V132.98H210.55V131.34H203.37V132.98H205.89V135C204.77 135.16 203.75 135.3 202.91 135.4L203.17 137.28C204.79 137.02 206.83 136.72 208.91 136.4C209.37 136.74 210.11 137.48 210.37 137.88C210.51 137.82 210.63 137.78 210.75 137.72V138.22H202.89V140.08H209.01C207.33 141.12 204.85 141.94 202.51 142.32C202.99 142.8 203.63 143.7 203.97 144.26C206.41 143.68 208.93 142.54 210.75 141.08V144.68H213.05V141.12C214.89 142.58 217.39 143.68 219.81 144.2C220.15 143.62 220.83 142.68 221.33 142.18C218.91 141.84 216.35 141.08 214.63 140.08H220.97Z" fill="#E69537"/>
<path d="M234.75 271H80.25L3 137L80.25 3H234.75L312 137L234.75 271Z" stroke="#E69537" stroke-width="5"/>
<path d="M294.5 261H241.5L215 215L241.5 169H294.5L321 215L294.5 261Z" stroke="#FFCC8F" stroke-opacity="0.89" stroke-width="5"/>
</svg>
