<svg width="324" height="274" viewBox="0 0 324 274" fill="none" xmlns="http://www.w3.org/2000/svg">
<path d="M234.75 271H80.25L3 137L80.25 3H234.75L312 137L234.75 271Z" stroke="#3F2B24" stroke-width="5"/>
<path d="M294.5 261H241.5L215 215L241.5 169H294.5L321 215L294.5 261Z" stroke="#D2A190" stroke-opacity="0.63" stroke-width="5"/>
<path d="M108.432 139.264C108.321 140.794 107.755 141.998 106.732 142.877C105.717 143.756 104.376 144.195 102.709 144.195C100.886 144.195 99.4505 143.583 98.4023 142.359C97.3607 141.129 96.8398 139.443 96.8398 137.301V136.432C96.8398 135.064 97.0807 133.86 97.5625 132.818C98.0443 131.777 98.7311 130.979 99.623 130.426C100.521 129.866 101.563 129.586 102.748 129.586C104.389 129.586 105.71 130.025 106.713 130.904C107.715 131.783 108.295 133.017 108.451 134.605H105.521C105.45 133.688 105.193 133.023 104.75 132.613C104.314 132.197 103.646 131.988 102.748 131.988C101.771 131.988 101.039 132.34 100.551 133.043C100.069 133.74 99.8216 134.824 99.8086 136.295V137.369C99.8086 138.906 100.04 140.029 100.502 140.738C100.971 141.448 101.706 141.803 102.709 141.803C103.614 141.803 104.288 141.598 104.73 141.188C105.18 140.771 105.437 140.13 105.502 139.264H108.432ZM119.73 138.619C119.73 137.571 119.932 136.637 120.336 135.816C120.74 134.996 121.319 134.361 122.074 133.912C122.836 133.463 123.718 133.238 124.721 133.238C126.146 133.238 127.309 133.674 128.207 134.547C129.112 135.419 129.617 136.604 129.721 138.102L129.74 138.824C129.74 140.445 129.288 141.747 128.383 142.73C127.478 143.707 126.264 144.195 124.74 144.195C123.217 144.195 121.999 143.707 121.088 142.73C120.183 141.754 119.73 140.426 119.73 138.746V138.619ZM122.553 138.824C122.553 139.827 122.742 140.595 123.119 141.129C123.497 141.656 124.037 141.92 124.74 141.92C125.424 141.92 125.958 141.66 126.342 141.139C126.726 140.611 126.918 139.771 126.918 138.619C126.918 137.636 126.726 136.874 126.342 136.334C125.958 135.794 125.417 135.523 124.721 135.523C124.031 135.523 123.497 135.794 123.119 136.334C122.742 136.868 122.553 137.698 122.553 138.824ZM147.416 136.08C147.032 136.028 146.693 136.002 146.4 136.002C145.333 136.002 144.633 136.363 144.301 137.086V144H141.479V133.434H144.145L144.223 134.693C144.789 133.723 145.574 133.238 146.576 133.238C146.889 133.238 147.182 133.281 147.455 133.365L147.416 136.08ZM158.148 138.639C158.148 136.992 158.516 135.68 159.252 134.703C159.994 133.727 161.007 133.238 162.289 133.238C163.318 133.238 164.167 133.622 164.838 134.391V129H167.67V144H165.121L164.984 142.877C164.281 143.756 163.376 144.195 162.27 144.195C161.026 144.195 160.027 143.707 159.271 142.73C158.523 141.747 158.148 140.383 158.148 138.639ZM160.971 138.844C160.971 139.833 161.143 140.592 161.488 141.119C161.833 141.646 162.335 141.91 162.992 141.91C163.865 141.91 164.48 141.542 164.838 140.807V136.637C164.486 135.901 163.878 135.533 163.012 135.533C161.651 135.533 160.971 136.637 160.971 138.844ZM182.836 144H180.004V133.434H182.836V144ZM179.838 130.699C179.838 130.276 179.978 129.928 180.258 129.654C180.544 129.381 180.932 129.244 181.42 129.244C181.902 129.244 182.286 129.381 182.572 129.654C182.859 129.928 183.002 130.276 183.002 130.699C183.002 131.129 182.855 131.48 182.562 131.754C182.276 132.027 181.895 132.164 181.42 132.164C180.945 132.164 180.561 132.027 180.268 131.754C179.981 131.48 179.838 131.129 179.838 130.699ZM197.768 133.434L197.855 134.654C198.611 133.71 199.623 133.238 200.893 133.238C202.012 133.238 202.846 133.567 203.393 134.225C203.939 134.882 204.219 135.865 204.232 137.174V144H201.41V137.242C201.41 136.643 201.28 136.21 201.02 135.943C200.759 135.67 200.326 135.533 199.721 135.533C198.926 135.533 198.331 135.872 197.934 136.549V144H195.111V133.434H197.768ZM215.971 138.639C215.971 137.018 216.355 135.712 217.123 134.723C217.898 133.733 218.939 133.238 220.248 133.238C221.407 133.238 222.309 133.635 222.953 134.43L223.07 133.434H225.629V143.648C225.629 144.573 225.417 145.377 224.994 146.061C224.577 146.744 223.988 147.265 223.227 147.623C222.465 147.981 221.573 148.16 220.551 148.16C219.776 148.16 219.021 148.004 218.285 147.691C217.549 147.385 216.993 146.988 216.615 146.5L217.865 144.781C218.568 145.569 219.421 145.963 220.424 145.963C221.173 145.963 221.755 145.761 222.172 145.357C222.589 144.96 222.797 144.394 222.797 143.658V143.092C222.146 143.827 221.29 144.195 220.229 144.195C218.959 144.195 217.93 143.701 217.143 142.711C216.361 141.715 215.971 140.396 215.971 138.756V138.639ZM218.793 138.844C218.793 139.801 218.985 140.553 219.369 141.1C219.753 141.64 220.281 141.91 220.951 141.91C221.811 141.91 222.426 141.588 222.797 140.943V136.5C222.419 135.855 221.811 135.533 220.971 135.533C220.294 135.533 219.76 135.81 219.369 136.363C218.985 136.917 218.793 137.743 218.793 138.844Z" fill="#3F2B24"/>
</svg>
