<svg width="324" height="274" viewBox="0 0 324 274" fill="none" xmlns="http://www.w3.org/2000/svg">
<path d="M100.27 143V128.781H104.645C105.895 128.781 107.011 129.064 107.994 129.631C108.984 130.191 109.755 130.992 110.309 132.033C110.862 133.068 111.139 134.247 111.139 135.568V136.223C111.139 137.544 110.865 138.719 110.318 139.748C109.778 140.777 109.013 141.574 108.023 142.141C107.034 142.707 105.917 142.993 104.674 143H100.27ZM103.199 131.154V140.646H104.615C105.761 140.646 106.637 140.272 107.242 139.523C107.848 138.775 108.157 137.704 108.17 136.311V135.559C108.17 134.113 107.87 133.02 107.271 132.277C106.673 131.529 105.797 131.154 104.645 131.154H103.199ZM127.955 143.195C126.406 143.195 125.143 142.72 124.166 141.77C123.196 140.819 122.711 139.553 122.711 137.971V137.697C122.711 136.636 122.916 135.689 123.326 134.855C123.736 134.016 124.316 133.371 125.064 132.922C125.82 132.466 126.679 132.238 127.643 132.238C129.088 132.238 130.224 132.694 131.051 133.605C131.884 134.517 132.301 135.809 132.301 137.482V138.635H125.572C125.663 139.325 125.937 139.878 126.393 140.295C126.855 140.712 127.438 140.92 128.141 140.92C129.228 140.92 130.077 140.526 130.689 139.738L132.076 141.291C131.653 141.89 131.08 142.359 130.357 142.697C129.635 143.029 128.834 143.195 127.955 143.195ZM127.633 134.523C127.073 134.523 126.617 134.712 126.266 135.09C125.921 135.467 125.699 136.008 125.602 136.711H129.527V136.486C129.514 135.861 129.345 135.38 129.02 135.041C128.694 134.696 128.232 134.523 127.633 134.523ZM149.635 140.08C149.635 139.735 149.462 139.465 149.117 139.27C148.779 139.068 148.232 138.889 147.477 138.732C144.964 138.205 143.707 137.137 143.707 135.529C143.707 134.592 144.094 133.811 144.869 133.186C145.65 132.554 146.669 132.238 147.926 132.238C149.267 132.238 150.338 132.554 151.139 133.186C151.946 133.817 152.35 134.637 152.35 135.646H149.527C149.527 135.243 149.397 134.911 149.137 134.65C148.876 134.383 148.469 134.25 147.916 134.25C147.441 134.25 147.073 134.357 146.812 134.572C146.552 134.787 146.422 135.061 146.422 135.393C146.422 135.705 146.568 135.959 146.861 136.154C147.161 136.343 147.662 136.509 148.365 136.652C149.068 136.789 149.661 136.945 150.143 137.121C151.633 137.668 152.379 138.615 152.379 139.963C152.379 140.926 151.965 141.708 151.139 142.307C150.312 142.899 149.244 143.195 147.936 143.195C147.05 143.195 146.262 143.039 145.572 142.727C144.889 142.408 144.352 141.975 143.961 141.428C143.57 140.874 143.375 140.279 143.375 139.641H146.051C146.077 140.142 146.262 140.526 146.607 140.793C146.952 141.06 147.415 141.193 147.994 141.193C148.535 141.193 148.941 141.092 149.215 140.891C149.495 140.682 149.635 140.412 149.635 140.08ZM167.184 143H164.352V132.434H167.184V143ZM164.186 129.699C164.186 129.276 164.326 128.928 164.605 128.654C164.892 128.381 165.279 128.244 165.768 128.244C166.249 128.244 166.633 128.381 166.92 128.654C167.206 128.928 167.35 129.276 167.35 129.699C167.35 130.129 167.203 130.48 166.91 130.754C166.624 131.027 166.243 131.164 165.768 131.164C165.292 131.164 164.908 131.027 164.615 130.754C164.329 130.48 164.186 130.129 164.186 129.699ZM179.107 137.639C179.107 136.018 179.492 134.712 180.26 133.723C181.035 132.733 182.076 132.238 183.385 132.238C184.544 132.238 185.445 132.635 186.09 133.43L186.207 132.434H188.766V142.648C188.766 143.573 188.554 144.377 188.131 145.061C187.714 145.744 187.125 146.265 186.363 146.623C185.602 146.981 184.71 147.16 183.688 147.16C182.913 147.16 182.158 147.004 181.422 146.691C180.686 146.385 180.13 145.988 179.752 145.5L181.002 143.781C181.705 144.569 182.558 144.963 183.561 144.963C184.309 144.963 184.892 144.761 185.309 144.357C185.725 143.96 185.934 143.394 185.934 142.658V142.092C185.283 142.827 184.426 143.195 183.365 143.195C182.096 143.195 181.067 142.701 180.279 141.711C179.498 140.715 179.107 139.396 179.107 137.756V137.639ZM181.93 137.844C181.93 138.801 182.122 139.553 182.506 140.1C182.89 140.64 183.417 140.91 184.088 140.91C184.947 140.91 185.562 140.588 185.934 139.943V135.5C185.556 134.855 184.947 134.533 184.107 134.533C183.43 134.533 182.896 134.81 182.506 135.363C182.122 135.917 181.93 136.743 181.93 137.844ZM203.541 132.434L203.629 133.654C204.384 132.71 205.396 132.238 206.666 132.238C207.786 132.238 208.619 132.567 209.166 133.225C209.713 133.882 209.993 134.865 210.006 136.174V143H207.184V136.242C207.184 135.643 207.053 135.21 206.793 134.943C206.533 134.67 206.1 134.533 205.494 134.533C204.7 134.533 204.104 134.872 203.707 135.549V143H200.885V132.434H203.541ZM227.018 143.195C225.468 143.195 224.205 142.72 223.229 141.77C222.258 140.819 221.773 139.553 221.773 137.971V137.697C221.773 136.636 221.979 135.689 222.389 134.855C222.799 134.016 223.378 133.371 224.127 132.922C224.882 132.466 225.742 132.238 226.705 132.238C228.15 132.238 229.286 132.694 230.113 133.605C230.947 134.517 231.363 135.809 231.363 137.482V138.635H224.635C224.726 139.325 224.999 139.878 225.455 140.295C225.917 140.712 226.5 140.92 227.203 140.92C228.29 140.92 229.14 140.526 229.752 139.738L231.139 141.291C230.715 141.89 230.143 142.359 229.42 142.697C228.697 143.029 227.896 143.195 227.018 143.195ZM226.695 134.523C226.135 134.523 225.68 134.712 225.328 135.09C224.983 135.467 224.762 136.008 224.664 136.711H228.59V136.486C228.577 135.861 228.408 135.38 228.082 135.041C227.757 134.696 227.294 134.523 226.695 134.523Z" fill="#5389BB"/>
<path d="M234.75 271H80.25L3 137L80.25 3H234.75L312 137L234.75 271Z" stroke="#5389BB" stroke-width="5"/>
<path d="M294.5 261H241.5L215 215L241.5 169H294.5L321 215L294.5 261Z" stroke="#B0CCE7" stroke-width="5"/>
</svg>
